<?xml version="1.0" encoding="iso-8859-1"?>
<!-- Generator: Adobe Illustrator 23.0.2, SVG Export Plug-In . SVG Version: 6.00 Build 0)  -->
<svg version="1.1" id="_x31_7_trash" xmlns="http://www.w3.org/2000/svg" xmlns:xlink="http://www.w3.org/1999/xlink" x="0px"
	 y="0px" viewBox="0 0 3872.983 3872.983" style="enable-background:new 0 0 3872.983 3872.983;" xml:space="preserve">
<g>
	<path d="M3132.104,770.04h-729.032V507.589c0-32.208-26.111-58.323-58.323-58.323h-816.516c-32.211,0-58.323,26.114-58.323,58.323
		V770.04H740.879c-32.211,0-58.323,26.114-58.323,58.323v379.097c0,32.208,26.111,58.323,58.323,58.323h153.157l284.787,2107.421
		c3.91,28.933,28.606,50.514,57.799,50.514h1399.742c29.193,0,53.889-21.581,57.799-50.514l284.787-2107.421h153.157
		c32.211,0,58.323-26.114,58.323-58.323V828.363C3190.427,796.154,3164.316,770.04,3132.104,770.04z M1586.556,565.911h699.871
		V770.04h-699.871V565.911z M2585.39,3307.072H1287.593l-15.763-116.645h1329.322L2585.39,3307.072z M2616.916,3073.782H1256.068
		l-244.325-1808H2861.24L2616.916,3073.782z M3073.782,1149.137h-145.806H945.008H799.201V886.685h2274.58V1149.137z"/>
	<path d="M1936.492,2898.814c32.211,0,58.323-26.114,58.323-58.323v-1370.58c0-32.208-26.111-58.323-58.323-58.323
		c-32.211,0-58.323,26.114-58.323,58.323v1370.58C1878.169,2872.7,1904.28,2898.814,1936.492,2898.814z"/>
	<path d="M1499.63,2848.534c4.061,29.178,29.047,50.286,57.69,50.286c2.677,0,5.391-0.182,8.116-0.564
		c31.904-4.442,54.165-33.906,49.722-65.806l-189.013-1357.486c-4.443-31.906-33.937-54.199-65.807-49.722
		c-31.904,4.443-54.165,33.906-49.722,65.807L1499.63,2848.534z"/>
	<path d="M2293.501,2898.256c2.728,0.382,5.437,0.564,8.116,0.564c28.64,0,53.629-21.108,57.69-50.286l189.013-1357.486
		c4.442-31.901-17.819-61.364-49.722-65.807c-31.892-4.471-61.367,17.816-65.806,49.722l-189.013,1357.486
		C2239.336,2864.35,2261.597,2893.813,2293.501,2898.256z"/>
</g>
</svg>
